<?xml version="1.0" standalone="no"?>
<!DOCTYPE svg PUBLIC "-//W3C//DTD SVG 1.1//EN" "http://www.w3.org/Graphics/SVG/1.1/DTD/svg11.dtd" >
<svg xmlns="http://www.w3.org/2000/svg">
<metadata></metadata>
<defs>
<font id="barbiemediumitalic" horiz-adv-x="2048" >
<font-face units-per-em="2048" ascent="1698" descent="-350" />
<missing-glyph horiz-adv-x="512" />
<glyph />
<glyph />
<glyph unicode="&#xd;" horiz-adv-x="512" />
<glyph unicode=" "  horiz-adv-x="512" />
<glyph unicode="&#x09;" horiz-adv-x="512" />
<glyph unicode="&#xa0;" horiz-adv-x="512" />
<glyph unicode="!" horiz-adv-x="376" d="M10 90q0 57 36 104.5t91 47.5q47 0 79 -34t32 -83q0 -59 -36 -106.5t-93 -47.5q-109 0 -109 119zM96 322l178 942h256l-278 -942h-156z" />
<glyph unicode="&#x26;" horiz-adv-x="1181" d="M10 381q0 127 72 231q88 123 250 158q-94 86 -94 188q0 135 103 225.5t267 90.5q137 0 234 -51q123 -66 143 -199l-199 -78q10 80 -43 121q-43 35 -116 35q-68 0 -118 -44t-50 -110q0 -139 192 -139q29 0 70 4l-39 -170q-33 4 -66 4q-182 0 -279 -73.5t-97 -192.5 q0 -98 76.5 -159.5t195.5 -61.5t191.5 68.5t66.5 181.5q-88 -16 -119 -29q-84 -33 -104 -92q-57 100 -58 145q0 84 136 119q123 27 247 55q135 41 136 144q0 53 -43 106q117 -37 157 -65q56 -41 56 -117q0 -147 -199 -217q4 -23 4 -56q0 -133 -68 -233q-80 -119 -235 -166 q-84 -27 -166 -27q-260 0 -397 142q-106 113 -107 262z" />
<glyph unicode="'" horiz-adv-x="352" d="M8 879q33 68 64 137q61 150 61 250h215q-14 -135 -94 -269q-90 -150 -184 -131z" />
<glyph unicode="," horiz-adv-x="352" d="M-117 -199l70 148q55 137 55 239h215q-14 -135 -94 -268q-90 -150 -184 -131z" />
<glyph unicode="-" horiz-adv-x="710" d="M80 348l51 211h363q73 0 108 16l-47 -210h-383q-72 0 -92 -17z" />
<glyph unicode="." horiz-adv-x="378" d="M-16 86q0 66 44 115t95 49q119 0 119 -113q0 -166 -150 -166q-109 0 -108 115z" />
<glyph unicode="/" horiz-adv-x="870" d="M-53 0q47 55 80 111q63 106 802 1370h271q-53 -47 -90 -111l-803 -1370h-260z" />
<glyph unicode="0" horiz-adv-x="1132" d="M121 532q0 391 176 689q190 324 487 323q186 0 296 -139t110 -389q0 -401 -172 -707q-188 -334 -479 -334q-217 0 -326 170q-92 143 -92 387zM369 512q0 -330 186 -330q160 0 279 291q106 264 106 555q0 303 -182 303q-166 0 -283 -282q-106 -254 -106 -537z" />
<glyph unicode="1" horiz-adv-x="493" d="M10 0q43 59 60 131l268 1141q18 78 -23 137l306 92l-318 -1372q-14 -61 4 -129h-297z" />
<glyph unicode="2" horiz-adv-x="958" d="M-35 0q47 266 209 457q96 115 352 303q293 217 293 395q0 74 -56 131t-145 57q-104 0 -171.5 -70.5t-69.5 -182.5l-207 127q31 129 145 221q133 106 322 106q199 0 317 -117q115 -108 115 -276q0 -258 -393 -551q-195 -145 -256 -203q-100 -92 -133 -186h413 q145 0 201 45l-70 -256h-866z" />
<glyph unicode="3" horiz-adv-x="1015" d="M41 307q0 94 109 228q29 -174 124 -265q88 -84 215 -84q135 0 214 82t79 226q0 96 -69 157q-61 53 -129 54h-101l64 208q35 -10 86 -10q86 0 158.5 72t72.5 180q0 90 -54 139t-144 49q-104 0 -171 -70.5t-69 -182.5l-205 127q31 129 144 221q131 106 319 106 q190 0 305 -117q103 -108 103 -266q0 -215 -250 -360q74 -29 128 -115t54 -190q0 -217 -127 -359q-143 -162 -408 -162q-207 0 -335 113q-113 96 -113 219z" />
<glyph unicode="4" horiz-adv-x="1054" d="M49 391l39 199l698 891h336q-23 -45 -41 -127l-172 -758h86q55 0 111 18l-47 -227h-197l-61 -258q-16 -66 6 -129h-299q39 49 61 139l62 252h-582zM336 598h338l141 614z" />
<glyph unicode="5" horiz-adv-x="966" d="M10 299q0 84 99 219q78 -342 346 -342q135 0 219 105q76 98 76 239q0 129 -68 209t-199 80q-133 0 -309 -100l209 772h717l-70 -244q-53 33 -104 33h-379l-82 -303q59 16 135 16q172 0 277 -104q111 -115 110 -328q0 -223 -131 -389q-147 -186 -397 -187q-207 0 -334 105 q-115 92 -115 219z" />
<glyph unicode="6" horiz-adv-x="1050" d="M98 467q0 272 207 571q188 270 455 443h356q-373 -207 -590 -508q-195 -268 -194 -502q0 -133 61 -213q63 -86 174 -86q102 0 187 100q92 111 92 277q0 256 -240 256h-61q57 145 196 145q145 0 236 -96q92 -102 92 -287q0 -233 -135 -405q-147 -186 -373 -187 q-221 0 -344 140q-119 133 -119 352z" />
<glyph unicode="7" horiz-adv-x="946" d="M68 0q-2 170 69 311q80 164 303 406q238 256 310 348q84 102 131 205h-484q-90 0 -151 -31l90 242h817q-27 -193 -117 -342q-96 -162 -385 -484q-170 -190 -239.5 -311t-69.5 -229q0 -78 14 -115h-288z" />
<glyph unicode="8" horiz-adv-x="1064" d="M88 354q0 297 375 475q-180 160 -180 330q0 164 128 274.5t330 110.5q209 0 320 -114q86 -91 86 -218q0 -135 -66.5 -224t-236.5 -177q215 -174 215 -381q0 -223 -164 -346q-143 -109 -363 -109q-211 0 -337 136q-106 113 -107 243zM332 375q0 -88 55 -150 q61 -70 170 -69q123 0 188 82q58 69 58 180q0 137 -189 287q-283 -137 -282 -330zM506 1165q0 -84 178 -231q238 129 238 262q0 170 -191 170q-98 0 -161.5 -53t-63.5 -148z" />
<glyph unicode="9" horiz-adv-x="997" d="M104 0q336 242 523 502q203 279 202 536q0 150 -54 230t-146 80q-111 0 -187 -99q-84 -109 -84 -288q0 -266 211 -267q14 0 35 5.5t27 5.5q-59 -156 -182 -156q-135 0 -228 106q-100 115 -100 306q0 238 147.5 410.5t372.5 172.5q201 0 317.5 -136.5t116.5 -369.5 q0 -295 -219 -604q-162 -227 -418 -434h-334z" />
<glyph unicode=":" horiz-adv-x="393" d="M-12 104q6 63 47 104.5t92 41.5q117 0 117 -117q0 -162 -148 -162q-55 0 -83.5 41t-24.5 92zM80 602q18 139 135 139q57 0 87 -38t26 -89q-14 -152 -144 -151q-51 0 -80.5 45t-23.5 94z" />
<glyph unicode=";" horiz-adv-x="352" d="M-94 -199q125 279 125 408h215q-14 -139 -94 -279q-90 -160 -185 -141zM68 594q2 70 45 110.5t96 36.5q106 -9 106 -120q0 -70 -36 -115q-41 -51 -107 -43q-109 12 -104 131z" />
<glyph unicode="?" horiz-adv-x="888" d="M190 1020q33 135 146 225q127 102 309 103q180 0 274.5 -90t94.5 -242q0 -102 -78 -201q-63 -78 -211 -188q-139 -104 -193 -178q-43 -63 -43 -138q-133 92 -133 156q0 66 45 123q39 49 160 143q213 168 213 283q0 55 -38 93t-111 38q-98 0 -167 -75t-59 -179zM305 90 q0 57 36 104.5t91 47.5q47 0 79 -34t32 -83q0 -59 -36 -106.5t-93 -47.5q-109 0 -109 119z" />
<glyph unicode="A" horiz-adv-x="1196" d="M-168 0q166 131 311 379q303 514 457 758q133 211 205 266q100 78 297 78h266q-35 -57 -39 -64q-25 -51 -43 -131l-256 -1116q-12 -53 -12 -94q0 -18 14 -76h-323q59 55 88 172q18 74 59 258h-426q-127 -233 -276 -430h-322zM543 625h358l150 651q-70 0 -112 -28.5 t-97 -121.5q-102 -168 -299 -501z" />
<glyph unicode="B" horiz-adv-x="1243" d="M119 1092q0 186 172 315q178 137 457 137q238 0 380 -117q129 -108 129 -266q0 -231 -253 -377q176 -84 176 -288q0 -207 -158 -355q-169 -157 -437 -157h-3q-121 0 -250 36q-109 33 -170 72l194 850q15 70 15 122q0 27 -4 50l286 90l-80 -334h43q135 0 230 39 q70 29 117 88q55 70 55 162q0 199 -291 199q-242 0 -373 -160q-68 -84 -88 -170q-10 -35 -16 -147q-78 90 -82 94q-49 66 -49 117zM424 209q86 -29 160 -29q154 0 254 105q92 96 92 217q0 184 -223 196q-11 1 -25 1q-59 0 -150 -15z" />
<glyph unicode="C" horiz-adv-x="1308" d="M199 621q0 410 213 671q205 252 506 252q193 0 317.5 -89t140.5 -243l-227 -88q2 18 2 35q0 92 -70 144q-61 45 -153 45q-186 0 -328 -201q-151 -214 -151 -543q0 -188 75 -301q82 -121 232 -121q137 0 247.5 95.5t167.5 257.5q33 -53 74 -140q8 -18 8 -45 q0 -115 -135 -233q-154 -135 -350 -135q-301 0 -446 194q-123 164 -123 445z" />
<glyph unicode="D" horiz-adv-x="1368" d="M117 1102q0 145 143 276q180 166 488 166q203 0 350 -86q272 -157 272 -538q0 -182 -59 -367q-63 -197 -176 -336q-88 -106 -224 -176q-147 -74 -301 -74q-221 0 -434 125l201 875q4 19 4 42q0 41 -14 93l297 86l-226 -977q74 -43 178 -43q211 0 357.5 212t146.5 554 q0 416 -377 416q-256 0 -385 -148q-102 -119 -106 -313q-135 115 -135 213z" />
<glyph unicode="E" horiz-adv-x="931" d="M0 0q61 70 88 197q12 53 262 1138q6 27 6 54q0 51 -18 92h792l-51 -234q-57 29 -133 29h-377l-100 -438h227q70 0 172 30l-57 -262q-61 37 -170 37h-217l-105 -450h336q147 0 213 43l-55 -236h-813z" />
<glyph unicode="F" horiz-adv-x="831" d="M0 0q59 84 82 174q37 150 268 1159q6 27 6 58q0 49 -16 90h793q-23 -96 -56 -238q-61 31 -131 31h-377l-100 -436h227q72 0 174 30q-23 -98 -61 -264q-61 37 -168 37h-217q-33 -133 -113 -483q-9 -41 -9 -76q0 -46 15 -82h-317z" />
<glyph unicode="G" horiz-adv-x="1318" d="M199 616q0 381 190 648q202 280 522 280h2q199 0 327 -90t144 -244l-229 -88q2 18 2 35q0 94 -70 143q-61 45 -153 46q-186 0 -330 -205q-154 -219 -155 -545v-9q0 -178 75 -290q84 -121 236 -121q80 0 170 47q51 213 88 381q4 18 4 37q0 39 -16 84h319q-47 -33 -65 -113 q-39 -174 -113 -481q-160 -156 -373 -156q-305 0 -450 195q-125 164 -125 446z" />
<glyph unicode="H" horiz-adv-x="1181" d="M-8 0q55 53 82 172q84 379 268 1161q7 30 7 59q0 45 -17 89h313q-31 -47 -37 -62q-25 -49 -43 -133q-43 -182 -102 -442h467l114 491q4 14 5 37q0 47 -17 109h316q-29 -47 -41 -76q-25 -53 -39 -119l-262 -1132q-8 -37 -9 -70q0 -31 7.5 -58.5t7.5 -25.5h-316 q53 53 80 172q57 256 111 477h-469q-61 -266 -115 -493q-8 -35 -8 -69q0 -45 14 -87h-317z" />
<glyph unicode="I" horiz-adv-x="485" d="M0 0q53 51 82 172l268 1163q6 27 6 56q0 49 -16 90h313q-35 -53 -37 -58q-23 -47 -43 -137q-104 -455 -262 -1132q-8 -39 -8 -72q0 -37 14 -82h-317z" />
<glyph unicode="J" horiz-adv-x="565" d="M-190 -35q172 0 262 80q76 68 110 209q90 393 240 1026q19 76 19 130q0 42 -11 71h307q-47 -55 -80 -197q-31 -129 -245 -1065q-45 -199 -152 -297q-88 -82 -205 -82q-96 0 -153 33q-49 27 -92 92z" />
<glyph unicode="K" horiz-adv-x="1105" d="M-2 0q49 59 76 172q94 408 266 1153q6 30 6 60q0 46 -14 96h315q-55 -76 -84 -203q-31 -135 -117 -508l584 711h318q-23 -12 -48 -31q-57 -43 -106 -102l-500 -605l193 -454q78 -184 157 -264q74 -74 207 -105q-113 -80 -188 -80q-240 0 -377 332q-217 524 -244 580 l-137 -590q-8 -33 -8 -71q0 -43 10 -91h-309z" />
<glyph unicode="L" horiz-adv-x="882" d="M0 0q59 84 84 190q117 508 270 1174q5 21 5 45q0 33 -9 72h318q-70 -80 -95 -185q-152 -641 -254 -1097h297q94 0 126 4.5t71 29.5l-55 -233h-758z" />
<glyph unicode="M" horiz-adv-x="1492" d="M0 0q49 63 78 188l264 1141q8 36 8 68q0 45 -16 84h313l137 -940l533 940h346q-41 -31 -80 -197l-262 -1132q-11 -45 -11 -85q0 -36 9 -67h-297q43 66 61 143l217 932l-626 -1065q-6 -10 -10 0l-156 1047l-211 -914q-8 -36 -8 -69q0 -40 12 -74h-301z" />
<glyph unicode="N" horiz-adv-x="1241" d="M2 0q49 76 74 180l262 1131q12 51 12 92q0 45 -14 78h317l246 -1061l201 903q9 39 9 72q0 48 -19 86h317q-45 -53 -80 -183q-10 -37 -80 -342q-45 -195 -223 -956h-236l-270 1124l-223 -983q-6 -29 -6 -57q0 -42 14 -84h-301z" />
<glyph unicode="O" horiz-adv-x="1447" d="M203 616q0 360 188 633q207 295 527 295q246 0 387 -160q145 -165 145 -456q0 -377 -184 -649q-205 -303 -537 -304q-262 0 -403 201q-123 172 -123 440zM457 606q0 -424 291 -424q215 0 344 281q104 225 104 479q0 389 -283 389q-205 0 -338 -239q-119 -213 -118 -486z " />
<glyph unicode="P" horiz-adv-x="1144" d="M117 1079q0 133 112 260q174 197 516 197q252 0 402 -131q131 -115 131 -279q0 -534 -745 -534h-3l-104 -463q-2 -10 -2 -27q0 -35 8 -102h-309q51 76 67 143q94 414 183 807q8 35 8 72t-8 76l297 90l-97 -400q24 -1 47 -1q153 0 263 57q153 81 153 252q0 119 -82 184 q-70 57 -178 63q-18 1 -35 1q-94 0 -182 -27q-129 -43 -203 -135q-63 -78 -84 -150q-14 -49 -22 -174q-78 86 -103 127q-31 47 -30 94z" />
<glyph unicode="Q" horiz-adv-x="1466" d="M201 616q0 362 184 633q201 295 520 295q248 0 391 -153q152 -164 152 -463q0 -223 -74 -426q-78 -213 -217 -348q29 -8 53 -19q59 -27 84 -59q31 -41 31 -195q-39 37 -127 72q-104 39 -197 39q-70 0 -148.5 -8.5t-125.5 -8.5q-262 0 -403 201q-123 172 -123 440z M455 600q0 -418 290 -418q215 0 345 281q104 225 104 479q0 389 -283 389q-205 0 -338 -241q-119 -217 -118 -490z" />
<glyph unicode="R" horiz-adv-x="1191" d="M123 1090q0 172 166 307q180 147 459 147q240 0 391 -121q145 -114 145 -288q0 -168 -86 -289q-106 -147 -321 -203l172 -424q43 -106 133 -219h-308l-292 793q-84 -362 -150 -637q-6 -24 -6 -57q0 -42 10 -99h-303q25 39 57 121l191 837q8 36 8 73t-8 75l295 90 l-94 -399h22q14 -2 21 -2q195 0 313 90q104 80 104 221q0 125 -92 190q-78 57 -202 58q-252 0 -386 -164q-68 -84 -90 -174q-6 -29 -16 -150q-80 88 -104 127q-29 47 -29 97z" />
<glyph unicode="S" horiz-adv-x="1142" d="M29 319q0 84 96 216q43 -178 180 -275q112 -76 245 -76h7q117 2 202 75t85 181q0 88 -113 164q-6 4 -244 148q-129 78 -174 135q-68 86 -67 225q0 188 139 310t348 122q197 0 324 -100q110 -88 143 -227l-227 -64v13q0 188 -225 188q-125 0 -200 -63.5t-75 -162.5 q0 -53 41 -90q23 -20 117 -80q72 -41 235 -137q209 -127 209 -348q0 -207 -145.5 -348t-374.5 -141q-209 0 -367.5 105.5t-158.5 229.5z" />
<glyph unicode="T" horiz-adv-x="741" d="M154 1233l61 248h791q109 0 157 10q31 6 82 33q-39 -135 -45 -148q-53 -100 -168 -100h-235l-260 -1120q-8 -39 -9 -74q0 -20 15 -82h-318q49 53 84 182q12 47 254 1094h-256q-98 0 -153 -43z" />
<glyph unicode="U" horiz-adv-x="1200" d="M98 246q0 61 56 305l172 745q12 48 12 91q0 50 -16 94h311q-63 -111 -168 -561q-63 -299 -129 -601q-6 -25 -6 -47q0 -100 125 -100q119 0 251 110.5t164 249.5q72 303 181 781q13 58 13 99q0 44 -15 69h309q-49 -70 -70 -158q-12 -57 -250 -1083q-18 -80 -18 -140 q0 -61 14 -100h-268q8 43 29 133q-158 -160 -371 -160q-147 0 -236.5 75t-89.5 198z" />
<glyph unicode="V" horiz-adv-x="1134" d="M188 1481h318q-27 -66 -27 -149q0 -20 2 -42l68 -973l272 410q174 264 230 383q37 82 36 150q0 96 -81 133q-51 23 -162 24q88 143 205 144q127 0 202.5 -72t75.5 -207q0 -197 -201 -487l-551 -795h-229l-92 1182q-14 207 -66 299z" />
<glyph unicode="W" horiz-adv-x="1716" d="M209 1481h317q-27 -71 -27 -131q0 -10 1 -19l67 -1020l320 475l-31 394q-16 201 -68 301h320q-29 -73 -29 -135v-15l70 -1016q150 219 379 574q162 262 162 368q0 158 -220 158h-24q92 143 207 144q115 0 198.5 -81t83.5 -204q0 -186 -229 -526q-111 -164 -528 -748h-232 l-33 444q-119 -166 -317 -444h-229l-93 1180q-16 205 -65 301z" />
<glyph unicode="X" horiz-adv-x="1249" d="M92 0q57 61 158 186l409 590l-184 582q-20 68 -59 123h321q-15 -45 -15 -87q0 -33 9 -63l96 -317l215 311q52 75 52 144v12h348q-43 -18 -129 -142l-406 -577l146 -467q53 -174 141 -260q82 -82 223 -115q-113 -80 -203 -80q-256 0 -366 348l-107 336l-241 -344 q-80 -113 -82 -180h-326z" />
<glyph unicode="Y" horiz-adv-x="960" d="M145 1481h322q-14 -63 -14 -102q0 -15 2 -27q47 -211 131 -578q201 190 256 262q88 113 88 224q0 147 -221 172q126 122 214 122h1q84 0 155 -53q97 -72 97 -207q0 -236 -295 -530q-80 -80 -238 -211l-92 -406q-9 -37 -9 -69q0 -42 15 -78h-311q45 55 65 141 q39 160 95 410q-29 127 -203 813q-14 53 -58 117z" />
<glyph unicode="Z" horiz-adv-x="1011" d="M-102 0l51 205l893 1077h-439q-59 0 -110 -16q-35 -12 -70 -27l60 242h886l-51 -221l-876 -1055h503q84 0 140 20q16 6 88 43q-47 -152 -68 -182q-57 -86 -196 -86h-811z" />
<glyph unicode="a" horiz-adv-x="915" d="M-6 225q0 121 96 226q61 66 154 102q59 23 207 57q109 25 141 41q70 33 74 97v5q0 62 -88 62h-3q-68 0 -147 -41q-100 -49 -170 -143q-49 82 -49 131q0 94 131 160q123 61 272 61q274 0 275 -182q0 -22 -6 -49q-18 -94 -140 -588q-11 -42 -11 -80q0 -45 15 -84h-223l2 88 q-106 -106 -256 -106q-133 0 -203.5 65.5t-70.5 177.5zM227 246q0 -33 28 -60.5t67 -27.5q119 2 192 98q68 88 86 229q-117 -37 -231 -75q-141 -61 -142 -164z" />
<glyph unicode="b" horiz-adv-x="917" d="M-29 57l246 1063q7 28 7 55q0 45 -19 85l280 88l-268 -1166q45 -16 86 -16q139 0 253 160.5t114 369.5q0 100 -76 101q-41 0 -88 -50.5t-62 -105.5q-57 76 -57 141q0 78 78 137.5t168 59.5q127 0 196 -80q62 -69 62 -184q0 -162 -57 -316q-76 -201 -220.5 -312.5 t-316.5 -111.5q-80 0 -179.5 25t-146.5 57z" />
<glyph unicode="c" horiz-adv-x="874" d="M39 403q0 229 141 400q150 178 367 178q150 0 240 -76.5t96 -191.5l-189 -66q2 16 2 33q0 133 -153 133q-111 0 -199 -129t-88 -281q0 -245 184 -245h2q90 0 163 74.5t100 205.5q102 -100 102 -168q0 -25 -10 -51q-94 -235 -373 -235h-2q-184 0 -289 133q-94 117 -94 286 z" />
<glyph unicode="d" horiz-adv-x="927" d="M43 395q0 240 141 418q133 168 291 168q86 0 139.5 -39t53.5 -90q0 -57 -74 -152q-20 90 -105 91q-92 0 -161 -140q-66 -131 -66 -284q0 -102 47 -157.5t123 -55.5q57 0 111 26l217 944q9 39 9 72q0 37 -11 66l268 86l-297 -1287q-131 -88 -295 -88q-186 0 -288.5 114 t-102.5 308z" />
<glyph unicode="e" horiz-adv-x="921" d="M41 389q0 223 135 399q152 193 381 193q162 1 250 -107q81 -99 81 -243q0 -13 -1 -27l-606 -317q16 -49 61 -84q49 -41 109 -41q92 0 176 90t123 229q94 -68 94 -145q0 -104 -111 -219q-131 -137 -311 -137q-184 0 -289 122q-92 113 -92 287zM274 481l400 207 q0 49 -34 87t-83 38q-109 0 -190 -106q-70 -94 -93 -226z" />
<glyph unicode="f" horiz-adv-x="516" d="M-39 0q41 49 57 119l146 620h-96q18 76 38 168h99l51 213q29 106 111 176q90 78 213 78q90 0 120.5 -30.5t53.5 -143.5q-35 27 -95 27q-92 0 -145 -53q-39 -41 -63 -123q-18 -70 -35 -142h82q76 0 153 56q-18 -57 -55 -154q-29 -74 -168 -74q-16 0 -35 2h-18 q-84 -360 -135 -596q-8 -35 -8 -68q0 -39 12 -75h-283z" />
<glyph unicode="g" horiz-adv-x="956" d="M14 -96q6 82 15 133q143 -172 350 -172q119 0 139 88q4 18 14 61q-59 -26 -112 -26h-4q-139 0 -236 96q-115 115 -114 317q0 221 127 394q144 196 372 196h2q119 0 228 -53q90 -47 143 -113l-211 -921q-49 -215 -319 -215q-152 0 -276 67q-118 63 -118 140v8zM335 229.5 q46 -61.5 126 -61.5q39 0 78 16.5t41 26.5l129 555q-51 47 -142 47q-123 0 -205 -143q-73 -125 -73 -281q0 -98 46 -159.5z" />
<glyph unicode="h" horiz-adv-x="919" d="M-66 0q49 70 64 131l225 977q7 28 7 62q0 40 -9 90l273 83l-111 -477q150 111 276 111q115 0 177 -59q53 -53 53 -142q0 -32 -8 -65q-39 -160 -136 -578q-8 -35 -8 -65q0 -38 13 -68h-281q37 45 55 117q82 330 131 553q8 33 9 57q0 76 -78 76q-102 0 -183 -80 q-70 -72 -94 -176l-98 -412q-6 -25 -6 -56q0 -36 8 -79h-279z" />
<glyph unicode="i" horiz-adv-x="407" d="M-59 0q45 41 57 94q78 313 143 613q12 53 12 96q0 46 -14 80l275 88l-193 -838q-7 -32 -7 -59q0 -43 17 -74h-290zM221 1147q0 61 40 105t95 44q109 0 109 -125q0 -55 -36 -100t-89 -45q-119 0 -119 121z" />
<glyph unicode="j" horiz-adv-x="407" d="M-305 -190h33q119 0 174 50t86 181q59 248 143 606q27 113 27 150q0 49 -11 82l271 82q-51 -211 -209 -889q-43 -188 -76 -250q-68 -125 -223 -125q-115 0 -215 113zM227 1137q0 57 37 102t90 45q115 0 115 -121q0 -61 -38 -106t-87 -45t-83 34.5t-34 90.5z" />
<glyph unicode="k" horiz-adv-x="894" d="M-49 0q43 57 59 129l226 971q9 38 9 72q0 42 -14 77l269 84l-183 -790l324 387h283q-76 -55 -121 -111l-248 -301l164 -364q37 -84 110 -154h-272l-240 535l-94 -408q-5 -23 -5 -47q0 -38 13 -80h-280z" />
<glyph unicode="l" horiz-adv-x="409" d="M-49 0q43 57 59 129l226 971q9 38 9 72q0 42 -14 77l269 84l-277 -1206q-5 -24 -5 -48q0 -38 13 -79h-280z" />
<glyph unicode="m" horiz-adv-x="1357" d="M-63 0q43 43 75 176q94 389 119 502q20 92 21 129q0 37 -19 88l248 80q-8 -49 -25 -137q49 37 99 75q96 61 194 62q143 0 191 -133q135 135 293 135q94 0 147 -48t53 -128q0 -29 -6 -58q-49 -215 -139 -606q-4 -20 -4 -47q0 -38 8 -90h-279q43 47 86 236q2 10 107 475 q4 18 4 32q0 55 -57 56q-74 0 -152 -78q-70 -72 -88 -139q-31 -117 -111 -449q-6 -22 -6 -48q0 -39 13 -85h-283q47 66 55 102l144 609q4 16 4 28q0 61 -62 62q-88 0 -166 -88q-61 -70 -77 -138q-53 -219 -111 -469q-5 -19 -5 -39q0 -33 13 -67h-284z" />
<glyph unicode="n" horiz-adv-x="923" d="M-61 0q43 59 59 131l141 604q6 25 6 53q0 49 -18 107l250 80l-27 -139q150 141 314 141q104 0 167.5 -52.5t63.5 -140.5q0 -28 -6 -57q-41 -168 -139 -594q-8 -36 -8 -67q0 -37 12 -66h-281q37 45 55 117q66 268 136 563q6 27 6 47q0 76 -80 76q-100 0 -175 -73 t-102 -183l-98 -412q-8 -31 -8 -63q0 -36 10 -72h-278z" />
<glyph unicode="o" horiz-adv-x="1001" d="M41 403q0 225 141 394q152 184 391 184q186 0 291 -115q97 -106 97 -278q0 -242 -140 -416q-150 -188 -391 -188q-152 0 -252 79q-137 106 -137 340zM266 358q0 -90 45 -143q47 -59 135 -59q145 0 230 170q63 131 63 274q0 209 -172 209q-129 0 -215 -132t-86 -319z" />
<glyph unicode="p" horiz-adv-x="911" d="M-147 -350q53 82 79 194l242 1051q123 86 293 86q184 0 289.5 -113t105.5 -299q0 -231 -129 -409t-303 -178q-76 0 -134 36.5t-58 96.5q0 51 71 147q37 -94 103 -94q98 0 166 139q63 129 63 283q0 211 -166 211q-55 0 -113 -27l-219 -944q-15 -62 -15 -110q0 -40 11 -70 h-286z" />
<glyph unicode="q" horiz-adv-x="946" d="M20 297q0 242 162 453q178 233 434 233q166 0 322 -88l-254 -1075q-10 -47 -10 -96v-17q2 -45 8 -57h-287q51 68 80 188l221 940q-33 16 -82 17q-160 0 -274 -183q-98 -160 -98 -325q0 -123 75 -123q43 0 89.5 50t60.5 105q55 -74 55 -147q0 -74 -78.5 -132t-162.5 -58 q-260 0 -261 315z" />
<glyph unicode="r" horiz-adv-x="538" d="M-66 0q43 66 68 172q45 182 125 535q14 68 14 110q0 39 -16 78l250 80l-25 -129q96 137 185 137q53 0 73 -41q15 -29 21 -121q-127 0 -221 -76q-47 -37 -68 -90q-18 -39 -49 -168q-23 -88 -80 -327q-8 -37 -8 -73q0 -44 12 -87h-281z" />
<glyph unicode="s" horiz-adv-x="835" d="M-25 215q0 53 72 178q2 -66 72 -141q90 -102 237 -102q74 0 129.5 40.5t55.5 102.5q0 51 -76 86q-61 29 -209 94q-143 59 -143 225q0 129 98 206t246 77q152 0 249 -69.5t117 -186.5l-182 -68q1 11 1 22q0 138 -171 138q-160 0 -160 -106q0 -37 33 -60.5t145 -68.5 q139 -55 189 -105q66 -63 65 -176q0 -125 -102 -219q-111 -100 -274 -100q-154 0 -273 67.5t-119 165.5z" />
<glyph unicode="t" horiz-adv-x="563" d="M45 193q0 33 8 67l117 498h-96l45 174h92l51 233l234 70l-72 -303h63q86 0 152 41q-25 -72 -49 -133q-33 -82 -137 -82h-66q-10 -55 -115 -475q-6 -20 -6 -41q0 -76 64 -88q19 -4 43 -4q44 0 102 14q-41 -88 -43 -92q-29 -53 -66.5 -71.5t-93.5 -18.5q-102 0 -164.5 57 t-62.5 154z" />
<glyph unicode="u" horiz-adv-x="913" d="M16 176q0 27 17 94q23 88 114 500q4 19 4 39q0 33 -10 70l262 84l-159 -697q-6 -29 -6 -49q0 -67 82 -67h2q37 0 93 29.5t97 74.5q51 57 90 223q43 186 66 303q6 27 6 51q0 28 -8 52l262 84l-187 -803q-9 -37 -9 -81q0 -39 7 -83h-233l22 106q-78 -66 -100 -77 q-80 -47 -182 -47q-82 0 -148 41q-82 53 -82 153z" />
<glyph unicode="v" horiz-adv-x="872" d="M53 930h289q-25 -52 -25 -106v-15l43 -580q70 76 162 220q139 201 140 305q0 94 -113 94q-25 0 -55 -6q35 76 72.5 107.5t107.5 31.5q74 0 131 -45q74 -56 74 -156q0 -156 -185 -420q-90 -131 -288 -360h-220q-18 172 -75 700q-16 147 -58 230z" />
<glyph unicode="w" horiz-adv-x="1320" d="M51 930h283q-20 -48 -20 -98q0 -12 1 -25l50 -565q78 125 204 342q-20 195 -31.5 247t-37.5 99h284q-21 -57 -21 -104q0 -10 1 -19l49 -576q45 55 158 222q137 195 137 305q0 94 -109 94q-25 0 -53 -6q59 139 174 139q84 0 145.5 -55.5t61.5 -143.5q0 -147 -156 -380 q-82 -123 -319 -406h-223l-31 293q-57 -100 -178 -293h-236q-14 164 -69 705q-16 143 -64 225z" />
<glyph unicode="x" horiz-adv-x="925" d="M-88 0q53 47 158 158l260 319l-148 309q-45 92 -112 144h266q31 -61 135 -279l88 109q100 123 115 170h297q-72 -53 -146 -144l-262 -323q41 -84 162 -330q53 -106 221 -129q-74 -59 -90 -70q-47 -30 -101 -30h-3q-152 0 -250 211q-20 47 -82 172l-125 -156 q-74 -90 -88 -131h-295z" />
<glyph unicode="y" horiz-adv-x="935" d="M-12 -49q154 -111 311 -111q98 0 140 33t61 119l22 104q-132 -112 -268 -112h-2q-90 0 -156 41q-80 51 -80 139q0 25 7 49l127 567q5 19 5 40q0 32 -12 69l265 88l-160 -705q-6 -29 -6 -47q0 -68 86 -69q37 0 96 28.5t100 73.5q53 57 90 225q41 186 64 299q6 30 6 58 t-6 53l264 88l-237 -1047q-27 -119 -117 -188q-100 -80 -258 -80q-82 0 -174.5 29t-131.5 72q-36 39 -36 159v25z" />
<glyph unicode="z" horiz-adv-x="905" d="M-57 0l43 186l598 574h-295q-98 0 -148 -27l45 201h717l-41 -180l-602 -568h365q94 0 180 58q-43 -141 -66 -176q-45 -68 -143 -68h-653z" />
<glyph unicode="&#xa8;" />
<glyph unicode="&#xaa;" />
<glyph unicode="&#xad;" horiz-adv-x="710" d="M80 348l51 211h363q73 0 108 16l-47 -210h-383q-72 0 -92 -17z" />
<glyph unicode="&#xae;" horiz-adv-x="153" d="M33 848q0 47 47 47q45 0 45 -47q0 -45 -45 -45q-47 0 -47 45zM39 848q0 -41 41 -41t41 41q0 43 -41 43t-41 -43zM61 821v56h23q8 0 13 -3.5t5 -11.5q0 -16 -16 -16l16 -25h-8l-14 25h-12v-25h-7zM68 852h10q18 0 18 10q0 8 -12 8h-16v-18z" />
<glyph unicode="&#xca;" />
<glyph unicode="&#xd4;" horiz-adv-x="808" d="M-68 172q0 51 72 147q14 -61 72.5 -105t130.5 -44q170 0 217 205q98 436 211 905q33 133 8 201h307q-47 -55 -80 -197q-49 -207 -213 -926q-88 -383 -448 -383q-113 0 -195 59.5t-82 137.5z" />
<glyph unicode="&#xe0;" />
<glyph unicode="&#xe4;" />
<glyph unicode="&#xef;" />
<glyph unicode="&#xf0;" />
<glyph unicode="&#x2000;" horiz-adv-x="780" />
<glyph unicode="&#x2001;" horiz-adv-x="1561" />
<glyph unicode="&#x2002;" horiz-adv-x="780" />
<glyph unicode="&#x2003;" horiz-adv-x="1561" />
<glyph unicode="&#x2004;" horiz-adv-x="520" />
<glyph unicode="&#x2005;" horiz-adv-x="390" />
<glyph unicode="&#x2006;" horiz-adv-x="260" />
<glyph unicode="&#x2007;" horiz-adv-x="260" />
<glyph unicode="&#x2008;" horiz-adv-x="195" />
<glyph unicode="&#x2009;" horiz-adv-x="312" />
<glyph unicode="&#x200a;" horiz-adv-x="86" />
<glyph unicode="&#x2010;" horiz-adv-x="710" d="M80 348l51 211h363q73 0 108 16l-47 -210h-383q-72 0 -92 -17z" />
<glyph unicode="&#x2011;" horiz-adv-x="710" d="M80 348l51 211h363q73 0 108 16l-47 -210h-383q-72 0 -92 -17z" />
<glyph unicode="&#x2012;" horiz-adv-x="710" d="M80 348l51 211h363q73 0 108 16l-47 -210h-383q-72 0 -92 -17z" />
<glyph unicode="&#x2013;" horiz-adv-x="1212" d="M80 348l100 211h712q143 0 212 16l-92 -210h-752q-141 0 -180 -17z" />
<glyph unicode="&#x2014;" horiz-adv-x="2236" d="M80 348l200 211h1424q287 0 424 16l-184 -210h-1503q-283 0 -361 -17z" />
<glyph unicode="&#x202f;" horiz-adv-x="312" />
<glyph unicode="&#x205f;" horiz-adv-x="390" />
<glyph unicode="&#x2122;" horiz-adv-x="184" d="M31 872v9h55v-9h-23v-61h-10v61h-22zM98 811v70h19l18 -47l23 47h16v-70h-10v61l-25 -61h-6l-22 61v-61h-13z" />
<glyph unicode="&#xe000;" horiz-adv-x="931" d="M0 0v932h932v-932h-932z" />
</font>
</defs>
</svg>
